<svg xmlns="http://www.w3.org/2000/svg" viewBox="0 0 450 200" width="100%" height="100%">
  <defs>
    <style>
      .cls-brand { fill: #5e35b1; } 
      .cls-text-name { fill: #4527a0; font-family: 'Georgia', serif; font-weight: bold;}
      .cls-text-sub { fill: #7e57c2; font-family: sans-serif; }
    </style>
  </defs>

  <g transform="translate(75, 50)">
    <g>
        <rect class="cls-brand" x="0" y="0" width="15" height="80" rx="4"/>
        <path class="cls-brand" d="M15,10 C50,10 60,30 45,40 C60,30 50,10 15,20 Z" opacity="0.8"/>
        <path class="cls-brand" d="M15,5 C55,5 70,30 50,45 C70,30 55,5 15,15 Z"/>
        <path class="cls-brand" d="M15,45 C60,45 75,70 55,85 C75,70 60,45 15,55 Z" opacity="0.8"/>
        <path class="cls-brand" d="M15,40 C65,40 80,70 60,90 C80,70 65,40 15,50 Z"/>
    </g>

    <text x="100" y="65" class="cls-text-name" font-size="45">Bookhaven</text>
    <text x="103" y="90" class="cls-text-sub" font-size="16">Bán &amp; Cho thuê sách</text>
  </g>
</svg>